REM MD5 199904580f17d6d1e91e764ce34291db
FILE "Jampack Vol. 2 (USA).bin" BINARY
  TRACK 01 MODE2/2352
    INDEX 01 00:00:00
  TRACK 02 AUDIO
    INDEX 00 47:22:35
    INDEX 01 47:24:35
  TRACK 03 AUDIO
    INDEX 00 49:19:35
    INDEX 01 49:21:35
REM LEADOUT 54:55:33
